<svg xmlns="http://www.w3.org/2000/svg" height="800" width="1200" viewBox="-24 -39.1105 208 234.663"><g fill="#231f20"><path d="M88.402 4.04c4.294-2.56 9.258-4.327 14.32-4 3.839.23 7.575 2.087 9.953 5.13 2.735 3.363 4.057 7.941 3.063 12.212-1.144 5.395-5.34 9.566-9.942 12.297.7 2.57 1.41 5.142 2.236 7.68 1.06.013 2.116.022 3.176.02-.091-4.777 1.532-9.65 4.818-13.166.936-.956 2.015-1.825 3.282-2.291 1.316-.483 3.12-.007 3.64 1.4.54 2.005-.571 3.93-1.601 5.566-1.89 2.845-4.696 5.353-5.052 8.95 8.56 1.073 16.866 4.864 22.89 11.108 6.24 6.264 10.145 14.87 10.33 23.748 3.194.162 6.406 1.692 8.094 4.488 2.158 3.597 2.696 7.975 2.242 12.09-.68 5.252-3.091 10.12-6.108 14.413-3.639 5.142-8.152 9.62-13.039 13.573-.859.746-1.973 1.264-2.505 2.324-1.506 2.624-3.67 4.89-6.334 6.35-4.492 2.45-9.841 3.328-14.873 2.379-1.141-.168-2.227-.567-3.351-.78-7.98-.756-15.994-1.359-23.897-2.742-5.817-1.082-11.617-2.748-16.74-5.774-4.303-2.521-8.071-6.296-9.714-11.089-1.112-3.253-1.51-6.918-.383-10.217.901-2.614 2.807-4.747 4.994-6.38-1.893-4.53-2.751-9.439-2.823-14.332.188-7.718 2.729-15.381 7.168-21.693a44.044 44.044 0 01-2.268-2.531c-3.286 1.785-7.187 2.388-10.852 1.61-3.96-.758-7.864-2.942-9.844-6.571-1.941-3.613-2.139-8.205-.279-11.892 1.633-3.295 4.56-5.729 7.677-7.563 5.097-2.981 10.864-4.582 16.639-5.606 2.446-7.841 8.104-14.484 15.083-18.71m.535 1.822c-7.874 4.77-13.1 12.961-15.858 21.596-.305.781-.486 2.068-1.581 2.042-.033-1.679.693-3.23 1.066-4.838-5.195 1.095-10.399 2.55-15.026 5.223-2.803 1.63-5.434 3.814-6.892 6.773-1.908 3.869-1.335 8.865 1.546 12.109 1.96 2.193 4.773 3.47 7.637 3.972 2.926.444 6.115.344 8.7-1.257-2.397-2.113-4.776-4.251-7.316-6.192-.34-.22-.587-.531-.6-.95 4.893 1.51 8.668 5.214 12.18 8.772.221.172.574.771.869.386 3.92-4.858 9.154-8.526 14.766-11.18-1.63-3.087-2.829-6.5-2.69-10.038.075-2.207.338-4.523 1.472-6.461.83-1.37 2.586-2.236 4.14-1.61.957.369 1.485 1.35 1.744 2.29 1.105 4.462-.813 9.119.629 13.542 3.985-1.215 8.049-2.353 12.242-2.502-1.232-4.608-2.605-9.212-3.079-13.975-.097-1.436-.165-2.904.137-4.323l.476-.204c.447 2.93 1.13 5.81 1.779 8.697 4.274-2.401 7.874-6.542 8.775-11.464 1.124-6.296-3.429-13.065-9.77-14.206-5.376-.842-10.777 1.08-15.346 3.798m30.436 17.533c-1.403.47-2.495 1.565-3.367 2.725-1.681 2.424-3.071 5.13-3.483 8.082-.528 2.815-.214 5.69-.343 8.528-1.167-.794-.703-2.518-.95-3.736-5.742-.262-11.451.846-16.879 2.664.405 1.568 1.711 2.764 1.909 4.384a2.605 2.605 0 01-1.037-.762c-1.704-1.931-2.99-4.3-3.373-6.87-.45-2.468.143-4.95.1-7.43-.039-1.636.166-3.502-.875-4.886-.839-.586-2.06-.149-2.598.652-1.008 1.523-1.264 3.408-1.27 5.2-.094 4.546 1.542 8.995 4.124 12.696.548 1.04 1.614 1.84 1.773 3.055-1.792-.738-2.553-2.754-3.914-3.917a43.16 43.16 0 00-6.497 3.775c-6.886 4.773-12.019 11.953-14.365 19.993-2.381 7.482-1.83 15.731.999 23.012 4.445-2.261 9.844-2.158 14.354-.136.114.224.224.45.33.677-2.4-.346-4.798-.79-7.235-.755-3.263-.077-6.565 1.034-9.03 3.186-1.974 1.717-3.325 4.157-3.633 6.762-.454 4.806 1.393 9.708 4.747 13.156 4.2 4.371 9.954 6.905 15.764 8.324 8.185 2 16.584 2.89 24.963 3.594-.797-.593-1.642-1.173-2.21-2.003l.12-.466c1.585.366 3.017 1.234 4.56 1.756 5.054 2.233 10.984 2.887 16.214.865 4.608-1.659 8.383-5.398 10.016-10.022.36-.616.31-1.666 1.102-1.89.029.759.035 1.52.042 2.282 4.407-3.409 8.47-7.29 11.824-11.753 3.016-4.018 5.508-8.56 6.49-13.531.761-3.762.48-7.754-.962-11.322-.895-2.155-2.657-3.947-4.858-4.757-2.764-1.072-5.904-.573-8.502.72l-.007-.506c1.27-1.053 2.855-1.59 4.446-1.938-.21-10.245-5.44-20.22-13.723-26.246-5.33-3.86-11.632-6.507-18.214-7.1-.1 1.241-.103 2.492-.233 3.733-.625-.392-.7-1.153-.735-1.818-.104-2.174-.026-4.432.862-6.458 1.312-3.107 3.797-5.511 5.336-8.492.405-.827.8-1.925.156-2.738-.46-.57-1.312-.428-1.938-.289z"/><path d="M124.447 56.835c2.612-.82 5.48-.045 7.703 1.432 2.592 1.737 4.351 4.43 5.664 7.207 1.497 3.114 2.223 6.571 2.31 10.016.535-.004 1.241.08.875.81-3.93 2.197-8.098 3.937-12.064 6.062-1.383.674-2.68 1.536-4.128 2.07-2.482-3.068-4.08-6.755-5.155-10.527-.933-3.51-1.614-7.258-.755-10.852.66-2.815 2.712-5.395 5.55-6.218m-3.58 4.854c-1.338 3.088-1.167 6.665-.308 9.857.308-1.99 1.131-4.086 2.959-5.142 2.339-1.51 5.618-1.28 7.68.615-.691 1.73-1.514 3.406-2.191 5.14a83.245 83.245 0 004.287-2.806c1.513 2.436 2.436 5.284 2.42 8.168 1.06-.45 2.11-.917 3.143-1.425-.233-5.34-1.902-10.79-5.512-14.831-1.753-1.964-4.264-3.539-6.992-3.286-2.35.052-4.576 1.533-5.486 3.71zm-25.553 1.397c3.95-.178 7.52 2.297 9.86 5.3 3.04 3.922 4.028 8.99 4.381 13.827.126 2.217.084 4.443-.188 6.646-2.44-.013-4.88.007-7.32.052-4.685.185-9.342.797-13.972 1.533l-.434-.862a68.51 68.51 0 011.16-.554c-2.18-4.106-3.681-8.668-3.688-13.35.004-3.52 1.115-7.187 3.72-9.663 1.766-1.62 4.015-2.949 6.48-2.93m-1.726 1.903c-2.528.684-4.469 2.712-5.625 4.99-1.485 2.994-1.763 6.562-.84 9.763.26-3.166 2.463-6.273 5.606-7.103 2.314-.654 4.763.243 6.607 1.66-.84 1.98-1.77 3.933-2.437 5.978 1.608-1.005 3.16-2.1 4.835-2.994 1.795 3.094 2.019 6.814 1.49 10.284 1.601-.013 3.202-.029 4.803-.061.246-4.417-.094-8.918-1.462-13.14-1.163-3.558-3.477-6.885-6.83-8.67-1.86-1.018-4.106-1.242-6.147-.707zm47.992 22.909c.888-.143 1.688-.762 2.615-.642-1.173 1.552-3.35 1.84-4.417 3.49-3.088 4.021-5.573 8.496-7.446 13.201-1.27 2.92-2.978 5.959-5.92 7.46-3.017 1.34-6.597 1.133-9.572-.234-2.796-1.215-5.23-3.104-8.003-4.361-3.552-1.634-7.194-3.082-10.93-4.236-.859-.217-1.766-.625-2.647-.275-1.688.528-3.497.661-5.233.32.064-.106.197-.317.262-.42 2.129-.305 4.3-1.05 5.771-2.696.496-.444.804-1.274 1.581-1.251.136.884-.25 1.691-.648 2.45 2.246.894 4.663 1.211 7.045 1.552 6.688.803 13.625.784 20.1-1.267 4.944-1.588 9.71-4.28 12.97-8.4.684-.92 1.403-1.843 1.789-2.935-.956-.162-2.122-.483-2.398-1.549 1.695.042 3.419.276 5.081-.207m-18.214 17.342c.428.635.891 1.248 1.254 1.925-3.328-2.34-7.99-1.838-11.283.304 2.693 2.048 6.047 3.545 9.491 3.286 3.348-.298 6.176-2.848 7.388-5.897-1.111-.457-2.268-.95-3.493-.85-1.225.036-2.343.594-3.357 1.232z"/><path d="M123.948 89.323c.814.596 1.433 1.51 1.407 2.553.107 1.364-.914 2.53-2.035 3.162-1.727.853-3.798.888-5.629.386-1.373-.467-3.016-1.293-3.26-2.88 1.977 1.292 4.45 1.82 6.76 1.234 1.238-.279 2.479-.982 3.026-2.174.315-.775-.019-1.55-.269-2.281z"/></g><g fill="#fff"><path d="M88.937 5.862c4.569-2.719 9.97-4.64 15.346-3.798 6.341 1.14 10.894 7.91 9.77 14.206-.901 4.922-4.501 9.063-8.775 11.464-.648-2.887-1.332-5.768-1.78-8.697l-.475.204c-.302 1.42-.234 2.887-.137 4.323.474 4.763 1.847 9.367 3.079 13.975-4.193.15-8.257 1.287-12.242 2.502-1.442-4.423.476-9.08-.629-13.542-.259-.94-.787-1.921-1.743-2.29-1.555-.626-3.312.24-4.141 1.61-1.134 1.938-1.397 4.254-1.471 6.461-.14 3.539 1.06 6.95 2.69 10.039-5.613 2.653-10.846 6.321-14.767 11.179-.295.385-.648-.214-.868-.386-3.513-3.558-7.288-7.261-12.18-8.771.012.418.259.729.599.949 2.54 1.94 4.919 4.08 7.316 6.192-2.585 1.6-5.774 1.701-8.7 1.257-2.864-.502-5.677-1.779-7.637-3.972-2.88-3.244-3.454-8.24-1.546-12.11 1.458-2.958 4.09-5.142 6.892-6.772 4.627-2.673 9.831-4.128 15.026-5.223-.373 1.607-1.099 3.16-1.066 4.838 1.095.026 1.276-1.26 1.58-2.042 2.758-8.635 7.985-16.826 15.859-21.596zm30.822 46.028c2.75-1.247 5.952-1.633 8.872-.761 3.337.96 6.079 3.299 8.308 5.884 4.316 4.809 6.35 11.345 6.477 17.728l.007.506c2.598-1.293 5.738-1.792 8.502-.72 2.2.81 3.963 2.602 4.858 4.757 1.442 3.568 1.723 7.56.962 11.322-.982 4.97-3.474 9.513-6.49 13.531-3.354 4.462-7.417 8.344-11.824 11.753a76.316 76.316 0 00-.042-2.281c-.791.223-.742 1.273-1.102 1.889-1.633 4.624-5.408 8.363-10.016 10.022-5.23 2.022-11.16 1.368-16.214-.865-1.543-.522-2.975-1.39-4.56-1.756l-.12.466c.568.83 1.413 1.41 2.21 2.003-8.379-.703-16.778-1.594-24.963-3.594-5.81-1.419-11.565-3.953-15.764-8.324-3.354-3.448-5.2-8.35-4.747-13.156.308-2.605 1.659-5.045 3.632-6.762 2.466-2.152 5.768-3.263 9.031-3.186 2.437-.035 4.835.409 7.236.755a26.128 26.128 0 00-.33-.677c-3.374-6.416-5.16-14.027-3.394-21.188 1.015-4.277 3.659-8.23 7.518-10.427 3.947-2.295 8.953-2.884 13.23-1.157 5.01 1.98 9.083 5.968 11.656 10.65.026-2.55-.188-5.151.534-7.634.96-3.59 3.095-7.112 6.533-8.778m4.688 4.945c-2.838.823-4.89 3.403-5.55 6.218-.859 3.594-.178 7.343.755 10.852 1.076 3.772 2.673 7.46 5.155 10.528 1.449-.535 2.745-1.397 4.128-2.07 3.966-2.126 8.134-3.866 12.064-6.063.366-.73-.34-.814-.875-.81-.087-3.445-.813-6.902-2.31-10.016-1.313-2.777-3.072-5.47-5.664-7.207-2.223-1.477-5.09-2.252-7.703-1.432m-29.133 6.25c-2.466-.019-4.715 1.31-6.48 2.93-2.606 2.476-3.717 6.144-3.72 9.663.006 4.682 1.506 9.244 3.687 13.35a68.51 68.51 0 00-1.16.554l.434.862c4.63-.736 9.287-1.348 13.972-1.533 2.44-.045 4.88-.065 7.32-.052.272-2.203.314-4.43.188-6.646-.353-4.837-1.341-9.905-4.38-13.826-2.34-3.004-5.911-5.48-9.861-5.301m46.265 24.81c-1.662.484-3.386.25-5.08.208.275 1.066 1.441 1.387 2.397 1.55-.386 1.091-1.105 2.015-1.789 2.935-3.26 4.118-8.026 6.81-12.97 8.399-6.475 2.05-13.412 2.07-20.1 1.267-2.382-.34-4.8-.658-7.045-1.552.399-.759.784-1.566.648-2.45-.777-.023-1.085.807-1.58 1.25-1.472 1.647-3.643 2.392-5.772 2.697-.065.103-.198.314-.262.42 1.736.341 3.545.208 5.233-.32.881-.35 1.788.058 2.647.275 3.736 1.154 7.378 2.602 10.93 4.236 2.773 1.257 5.207 3.146 8.003 4.361 2.975 1.367 6.555 1.575 9.572.233 2.942-1.5 4.65-4.54 5.92-7.459 1.873-4.705 4.358-9.18 7.446-13.2 1.066-1.65 3.244-1.939 4.417-3.49-.927-.12-1.727.498-2.615.64m-17.63 1.427c.249.732.583 1.506.268 2.28-.547 1.193-1.788 1.896-3.026 2.175-2.31.586-4.783.058-6.76-1.235.244 1.588 1.887 2.414 3.26 2.881 1.831.502 3.902.467 5.629-.386 1.121-.631 2.142-1.798 2.035-3.162.026-1.043-.593-1.957-1.407-2.553m.15 26.113c-3.212.7-6.403-.447-9.326-1.672 2.284 2.907 6.429 3.746 9.912 3.017 3.069-.603 5.936-2.803 6.714-5.923-1.905 2.206-4.352 4.102-7.3 4.578z"/><path d="M120.867 61.69c.91-2.178 3.137-3.66 5.486-3.711 2.728-.253 5.24 1.322 6.992 3.286 3.61 4.04 5.279 9.49 5.512 14.83a62.223 62.223 0 01-3.143 1.426c.016-2.884-.907-5.732-2.42-8.168a83.245 83.245 0 01-4.287 2.806c.677-1.734 1.5-3.41 2.19-5.14-2.06-1.895-5.34-2.125-7.68-.615-1.827 1.056-2.65 3.153-2.958 5.142-.859-3.192-1.03-6.769.308-9.857zm-27.28 3.298c2.041-.535 4.287-.311 6.147.706 3.353 1.786 5.667 5.113 6.83 8.671 1.368 4.222 1.708 8.723 1.462 13.14-1.601.032-3.202.048-4.803.061.529-3.47.305-7.19-1.49-10.284-1.675.894-3.227 1.99-4.835 2.994.668-2.045 1.598-3.999 2.437-5.979-1.844-1.416-4.293-2.313-6.607-1.659-3.143.83-5.346 3.937-5.606 7.103-.923-3.201-.645-6.77.84-9.763 1.156-2.278 3.097-4.306 5.625-4.99z"/></g><g fill="#e5173f"><path d="M119.373 23.395c.626-.14 1.478-.282 1.938.289.645.813.25 1.911-.156 2.738-1.539 2.98-4.024 5.385-5.336 8.492-.888 2.026-.966 4.284-.862 6.458.035.665.11 1.426.735 1.818.13-1.24.133-2.492.233-3.733 6.582.593 12.884 3.24 18.214 7.1 8.282 6.027 13.512 16 13.723 26.246-1.591.347-3.176.885-4.446 1.938-.126-6.383-2.161-12.919-6.477-17.728-2.23-2.585-4.97-4.925-8.308-5.884-2.92-.872-6.121-.486-8.872.761-3.438 1.666-5.574 5.188-6.533 8.778-.722 2.483-.508 5.085-.534 7.635-2.573-4.683-6.646-8.671-11.656-10.651-4.277-1.727-9.283-1.138-13.23 1.157-3.86 2.196-6.503 6.15-7.518 10.427-1.765 7.16.02 14.772 3.393 21.188-4.51-2.022-9.909-2.125-14.354.136-2.83-7.28-3.38-15.53-.999-23.012 2.346-8.04 7.48-15.22 14.365-19.993a43.16 43.16 0 016.497-3.775c1.36 1.163 2.122 3.179 3.914 3.917-.159-1.215-1.225-2.015-1.773-3.055-2.582-3.7-4.218-8.15-4.124-12.696.006-1.792.262-3.677 1.27-5.2.538-.8 1.76-1.238 2.598-.652 1.04 1.384.836 3.25.875 4.887.043 2.479-.55 4.96-.1 7.43.382 2.57 1.669 4.938 3.373 6.87.272.343.635.589 1.037.76-.198-1.62-1.504-2.815-1.909-4.383 5.428-1.818 11.137-2.926 16.88-2.664.246 1.218-.218 2.942.949 3.736.13-2.838-.185-5.713.343-8.528.412-2.952 1.802-5.658 3.483-8.082.872-1.16 1.964-2.255 3.367-2.725zm3.992 81.844c1.014-.638 2.132-1.196 3.357-1.231 1.225-.1 2.382.392 3.493.849-1.212 3.049-4.04 5.599-7.388 5.897-3.444.26-6.798-1.238-9.49-3.286 3.292-2.142 7.954-2.644 11.282-.304-.363-.677-.826-1.29-1.254-1.925zm-54.469 18.758c1.633-.285 3.402.58 4.173 2.051 1.08 1.95.253 4.721-1.847 5.6-2.323 1.182-5.473-.503-5.687-3.118-.363-2.112 1.251-4.25 3.36-4.533zm-54.658 3.195c1.176-1.231 3.234-1.387 4.617-.421.985.66 1.475 1.873 1.462 3.036.013 4.854.013 9.711.02 14.568.113 2.664-.014 5.512-1.566 7.793-2.524 3.98-7.971 5.104-12.251 3.691-3.127-.985-5.707-3.606-6.52-6.795v-1.283c.295-2.21 2.932-3.282 4.838-2.369 1.597.759 2.031 2.693 3.392 3.72 1.297.963 3.419.807 4.372-.567.635-.826.631-1.908.631-2.9-.025-5.071.013-10.142-.029-15.213-.026-1.154.178-2.414 1.034-3.26zm61.977 2.258c-.006-2.203 2.444-3.823 4.495-3.168 1.578.362 2.68 1.93 2.69 3.519.032 2.18-.007 4.361.015 6.545 4.294-1.614 9.566.12 12.035 3.989 2.226 3.347 2.174 8-.058 11.328-1.306 2.048-3.377 3.564-5.687 4.287-2.379.72-4.977.55-7.314-.246-2.495-.862-4.575-2.855-5.472-5.347-.587-1.484-.742-3.094-.717-4.676.02-5.411-.038-10.822.013-16.23m9.874 12.676c-1.87.243-3.4 2.005-3.312 3.898-.006 2.093 1.97 3.943 4.063 3.759 1.847-.04 3.445-1.608 3.643-3.425.337-2.389-2.026-4.663-4.394-4.232zm-27.618-14.05c1.16-.27 2.466 0 3.315.865.872.784 1.14 2.006 1.131 3.14-.016 6.7.01 13.402-.013 20.106.059 1.75-1.205 3.51-3 3.717-2.045.392-4.1-1.352-4.044-3.429a6497.16 6497.16 0 010-21.026c-.023-1.546 1.098-3.023 2.611-3.373zm-11.026.353c2.093-1.306 5.184.262 5.249 2.757.039 7.103.016 14.206.013 21.305.039 1.838-1.607 3.51-3.457 3.438-1.864.114-3.584-1.571-3.516-3.434-.01-4.647-.143-9.297.003-13.943 0-2.489-.136-4.977.023-7.463.039-1.108.758-2.103 1.685-2.66zm94.665 6.163c1.715-.253 3.208 1.717 2.43 3.299-.605 1.529-2.835 1.924-3.907.667-1.296-1.315-.408-3.853 1.477-3.966m-.155.402c-.982.25-1.75 1.228-1.533 2.268.165 1.607 2.466 2.284 3.451.972 1.296-1.309-.185-3.723-1.918-3.24zm-110.009.343c5.275-.648 10.573 3.338 11.416 8.587 1.15 5.36-2.644 11.12-8 12.223-4.427 1.111-9.41-1.073-11.594-5.081-1.932-3.36-1.799-7.803.372-11.02 1.708-2.648 4.673-4.424 7.806-4.709m.45 6.734c-1.726.265-3.24 1.83-3.2 3.622-.189 1.886 1.337 3.649 3.171 3.947 2.175.402 4.398-1.439 4.417-3.649.172-2.313-2.12-4.325-4.387-3.92zm68.75-3.458c2.926-3.422 8.25-4.274 12.2-2.203 2.55 1.302 4.349 3.891 4.8 6.707.18 1.15.424 2.414-.111 3.51-.535 1.098-1.863 1.445-2.988 1.49-3.22.065-6.448-.049-9.669.058 1.387 2.612 4.854 2.664 7.33 1.847 1.173-.385 2.64-.725 3.704.104 1.027.826 1.007 2.443.33 3.487-.84 1.263-2.314 1.879-3.697 2.336-3.788 1.03-8.211.418-11.15-2.333-4.144-3.765-4.417-10.823-.749-15.003m4.135 4.984c2.3.02 4.605.02 6.905 0-.23-1.144-.904-2.252-2.045-2.66-1.986-.908-4.688.385-4.86 2.66zm-37.082-8.046c2.119-.865 4.747.658 4.821 2.99.046 4.644.017 9.29.013 13.938.026 1.81-1.548 3.473-3.38 3.457-1.911.152-3.641-1.536-3.645-3.435-.022-4.54-.01-9.082-.006-13.622-.016-1.413.855-2.826 2.197-3.328zm57.003.858c3.189-1.636 7.265-1.487 10.26.522 2.935 1.919 4.422 5.629 4.037 9.06-.24 1.44-1.802 2.107-3.12 2.12-3.231.064-6.462-.017-9.692.038.48 1.232 1.723 1.958 2.968 2.204 1.607.262 3.266.068 4.795-.48 1.121-.327 2.6-.499 3.448.49.936 1.043.645 2.699-.24 3.684-.985 1.072-2.398 1.626-3.771 2.009-3.575.842-7.67.272-10.483-2.217-3.211-2.715-4.355-7.42-3.11-11.386.741-2.563 2.527-4.822 4.908-6.043m1.28 7.19c2.32.013 4.644.016 6.967 0-.269-1.669-1.782-3.036-3.503-2.936-1.704-.068-3.24 1.254-3.464 2.936z"/><path d="M141.44 135.756c.609.023 1.247-.078 1.827.162.13.823.052 1.672.013 2.505-.194-.405-.37-.813-.525-1.228-.22-.013-.66-.039-.884-.055-.007.256-.026.761-.036 1.017-.097-.006-.295-.022-.392-.029a170.48 170.48 0 01-.003-2.372m.495.48c-.395.518.561.846.869.466.392-.521-.567-.865-.869-.466z"/></g><path d="M124.098 115.436c2.948-.476 5.395-2.372 7.3-4.578-.778 3.12-3.645 5.32-6.714 5.923-3.483.729-7.628-.11-9.912-3.017 2.923 1.225 6.114 2.372 9.326 1.672z" fill="#221e1f"/></svg>