<svg xmlns="http://www.w3.org/2000/svg" height="800" width="1200" viewBox="-64.03095 -120 554.9349 720"><path d="M212.4 325.1c75.1 0 136.1-61 136.1-136.1s-61-136.1-136.1-136.1S76.3 113.9 76.3 189s61.6 136.1 136.1 136.1" fill="#FFF"/><path d="M93.3 187.8c0-66.9 54-120.3 120.3-120.3 66.9 0 120.3 54 120.3 120.3 0 66.9-54 120.3-120.3 120.3-66.3.6-120.3-54-120.3-120.3m-63.4 0c0 101.5 82.7 184.3 184.3 184.3 101.6 0 184.3-82.7 184.3-184.3 0-101.6-82.8-184.3-184.3-184.3-101.5 0-184.3 82.8-184.3 184.3" fill="#AC162C"/><path d="M214.2 304.5c-15.8 0-31.1-2.9-45.2-9.4-13.5-5.9-26.4-14.1-37-25.2-10.6-11.1-19.4-23.5-25.2-37-6.5-14.7-9.4-29.3-9.4-45.2 0-15.9 2.9-31.1 9.4-45.2 5.9-13.5 14.1-26.4 25.2-37 11.1-10.6 23.5-19.4 37-25.2 14.7-6.5 29.3-9.4 45.2-9.4 15.9 0 31.1 2.9 45.2 9.4 13.5 5.9 26.4 14.1 37 25.2 10.6 10.6 19.4 23.5 25.2 37 6.5 14.7 9.4 29.3 9.4 45.2 0 15.9-2.9 31.1-9.4 45.2-5.9 13.5-14.1 26.4-25.2 37-10.6 10.6-23.5 19.4-37 25.2-14.1 5.9-29.4 9.4-45.2 9.4m0-241.1c-68.7 0-124.4 55.7-124.4 124.4s55.7 124.4 124.4 124.4 124.4-55.7 124.4-124.4S282.8 63.4 214.2 63.4M33.4 187.8C33.4 88 114.4 7 214.2 7 314 7 394.9 88 394.9 187.7c0 99.7-81 180.7-180.7 180.7-99.8-.5-180.8-80.9-180.8-180.6M214.2 0c-25.2 0-49.9 5.3-73.3 14.7-11.1 4.7-22.3 10.6-32.3 17.6-9.4 6.5-19.4 14.1-27.6 22.9-8.2 8.2-16.4 18.2-22.9 28.2s-12.3 21.1-17.6 32.3c-10 23.5-14.7 48.1-14.7 73.3 0 25.2 5.3 49.9 14.7 73.3 4.7 11.1 10.6 22.3 17.6 32.3 6.5 10 14.7 19.4 22.9 28.2 8.2 8.2 18.2 16.4 28.2 22.9s21.1 12.3 32.3 17.6c23.5 10 48.1 14.7 73.3 14.7 25.2 0 49.9-5.3 73.3-14.7 11.1-4.7 22.3-10.6 32.3-17.6 10-6.5 19.4-14.7 28.2-22.9 8.2-8.2 16.4-18.2 22.9-28.2s12.3-21.1 17.6-32.3c10-23.5 14.7-48.1 14.7-73.3 0-25.2-5.3-49.9-14.7-73.3-4.7-11.1-10.6-22.3-17.6-32.3-6.5-10-14.7-19.4-22.9-28.2-8.2-8.2-18.2-16.4-28.2-22.9S299.3 20 288.1 14.7C264.1 4.7 239.4 0 214.2 0" fill="#FFF"/><path d="M81 163.1l-5.3-1.8.6-2.9c.6-1.8 0-2.3-1.8-3.5l-19.4-6.5c-1.8-.6-2.3 0-3.5 1.8l-.6 2.9-5.3-1.8 7.6-23.5 5.3 1.8-1.2 3.5c-.6 1.8 0 2.3 1.8 3.5l19.4 6.5c2.3.6 2.3.6 3.5-2.3l1.2-3.5c1.2-3.5 0-7-5.3-8.8l-3.5-1.2 2.3-5.9 15.8 5.3L81 163.1m26.4-55.1c-7.6 10-18.2 11.7-27.6 4.7-9.4-6.5-10.6-17.6-2.9-27.6 7.6-10 18.2-11.7 27.6-4.7 8.8 6.4 10.5 17.6 2.9 27.6M81.6 88.6c-2.9 3.5-1.8 6.5 6.5 12.3 8.2 5.9 11.1 6.5 14.1 3.5 2.9-3.5 1.2-6.5-7-12.3-7.8-7-10.7-7-13.6-3.5zM135 41.7c-1.2.6-1.2 2.3-.6 3.5l7.6 10.6c6.5 9.4 3.5 16.4-4.7 22.3-9.4 6.5-16.4 7.6-23.5-1.8l-7.6-11.7c-.6-1.2-2.3-1.8-3.5-.6l-1.2.6-3.5-4.7 18.2-12.3 3.5 4.7-2.3 1.2c-1.2.6-1.8 2.3-.6 3.5l8.8 12.3c2.9 4.1 6.5 3.5 10.6.6 3.5-2.3 4.7-6.5 2.3-10l-8.8-12.3c-.6-1.2-2.3-2.3-3.5-.6l-1.8 1.2-3.5-4.7 13.5-9.4 3.5 4.7-2.9 2.9m22.8 24l-1.8-5.3 3.5-1.2c1.8-.6 1.8-1.2 1.2-2.9l-7-19.4c-.6-1.8-1.8-2.3-3.5-2.3l-2.9 1.2-1.8-5.3 22.3-7.6 1.8 5.3-2.9 1.2c-1.8.6-1.8 1.2-.6 2.9l7 19.4c.6 1.8 1.8 2.3 3.5 1.8l2.3-.6 1.8 5.3-22.9 7.5m48.8-11.1c-5.9.6-9.4-1.2-11.7-1.2-.6 0-1.2.6-1.2 1.8l-5.3.6-.6-14.1 5.9-.6v1.2c.6 5.3 4.7 7 10 6.5 5.3-.6 7-1.8 7-4.1s-1.2-2.9-6.5-3.5l-7.6-1.2c-5.3-.6-9.4-4.1-9.4-9.4-.6-8.2 6.5-12.3 15.3-12.9 5.3-.6 7.6 1.2 8.8 1.2 1.2 0 1.8-.6 1.8-1.8l5.3-.6.6 12.9-6.5.6v-1.2c-.6-4.1-3.5-6.5-8.2-5.9-3.5.6-6.5.6-6.5 3.5 0 1.8.6 2.3 5.3 3.5l8.2 1.2c5.3.6 9.4 3.5 10 9.4.5 10-7.1 13.5-14.7 14.1m19.9-.6l.6-5.3 3.5.6c1.8.6 2.3 0 2.3-1.8l3.5-20.5c.6-1.8-.6-2.9-2.3-3.5l-2.9-.6.6-5.3 23.5 4.1-.6 5.3-2.9-.6c-1.8-.6-2.3.6-2.3 2.3L246 49.2c-.6 1.8.6 2.3 2.3 2.9l2.3.6-.6 5.3-23.5-4m49.3 15.2l2.3-5.3 3.5 1.8c1.2.6 2.3 0 2.3-1.2l.6-2.3-11.7-6.5-1.8 1.8c-1.2 1.2-1.2 2.3.6 3.5l2.3 1.2-2.3 5.3-15.3-7.6 2.3-5.3.6.6c1.2.6 2.9 1.2 4.1 0l24.1-20.5 10.6 5.9-3.4 30.4c0 1.8.6 3.5 1.8 4.1l1.2.6-2.3 5.3-19.5-11.8M287.5 44l-10 8.2 8.2 4.1zm65.8 52.8c-1.2-1.2-2.3-1.2-3.5-.6L327.4 115l-7.6-9.4 7-28.2-11.7 10c-1.2 1.2-1.2 2.3-.6 3.5l2.3 2.3-4.1 3.5-12.3-14.1 4.1-3.5 2.3 2.3c1.2 1.2 2.3 1.2 3.5.6l15.3-12.9c1.2-1.2 1.8-2.3.6-3.5l-2.3-2.3 4.1-3.5 11.7 13.5-6.5 27 11.1-9.4c1.2-1.2 1.2-2.3.6-3.5l-2.3-2.3 4.1-3.5L359 95.7l-4.1 3.5-1.6-2.4m-14.1 44l5.3-2.3 1.2 3.5c.6 1.8 1.8 1.8 2.9.6l2.3-1.8-4.7-12.3h-2.3c-2.3 0-2.3.6-1.8 2.3l1.2 2.9-5.3 2.3-5.9-15.8 5.3-2.3.6.6c.6 1.2 1.8 2.9 3.5 2.9l31.1.6 4.1 11.7-22.9 20.5c-1.2 1.2-2.3 2.3-1.2 4.1l.6 1.2-5.2 2.5-8.8-21.2m25.8-11.1l-12.9-.6 3.5 8.8zM71.6 281.1l4.7-2.9 1.2 1.8c.6.6 1.8 1.8 2.3.6.6-.6.6-.6 1.2-1.8l2.9-7.6-6.5-1.8-2.9 2.3c-1.2.6-2.3 1.8-.6 2.9l1.2 2.3-4.7 2.9L58.1 261l4.7-2.9 1.8 2.3c.6 1.2 2.3 1.8 3.5.6l17.6-11c1.2-.6 1.8-2.3.6-3.5l-1.8-2.3 4.7-2.9 12.9 20-4.7 2.3-2.3-2.9c-.6-1.2-1.8-1.2-3.5-.6l-7.6 5.3 13.5 3.5c.6.6 1.8.6 2.3 0 .6-.6.6-1.2.6-1.8l-1.2-1.8 4.7-2.9 11.1 17-4.7 2.3-2.3-2.9c-.6-1.2-2.3-2.3-4.1-2.3l-8.2-2.3-7 18.2c-.6 1.8-.6 2.3 0 3.5l1.2 2.3-5.3 2.9-13-20m22.9 28.7l3.5-4.1 2.3 2.3c1.2 1.2 1.8.6 2.9-.6l13.5-15.8c1.2-1.2 1.2-2.9 0-3.5l-2.3-2.3 3.5-4.1 18.2 15.3-3.5 4.1-2.3-2.3c-1.2-1.2-2.3-.6-3.5.6l-13.5 15.8c-1.2 1.2-1.2 2.3.6 3.5l2.3 1.8-3.5 4.1-18.2-14.8m72.2 20l1.8-4.1c1.8-3.5.6-6.5-2.3-7.6l-1.2-.6-9.4 21.1c-.6 1.8 0 3.5 1.8 4.1l3.5 1.8-2.3 5.3-25.2-10.6 2.3-5.3 3.5 1.2c1.8.6 3.5 0 3.5-1.8l9.4-21.1-1.8-.6c-3.5-1.8-5.9 0-7.6 3.5l-1.8 4.1-5.9-2.3 6.5-14.7 36.4 15.8-6.5 14.7-4.7-2.9m32.8 28.1c-12.3-1.2-18.8-9.4-18.2-21.1 1.2-12.3 9.4-18.2 21.1-17 4.1.6 6.5 1.8 7.6 2.3.6.6 1.2 0 1.8-1.2l5.9.6-1.2 14.7-6.5-.6v-1.2c.6-4.1-1.2-7.6-5.9-7.6-5.3-.6-7.6 3.5-8.8 12.3-.6 9.4.6 13.5 6.5 14.1 5.3.6 6.5-2.3 7.6-7.6l.6-1.8 6.5.6v1.8c0 6.5-5.3 12.3-17 11.7m60.5-6.4l-1.2-5.3 2.3-.6c1.8-.6 2.3-1.8 1.8-3.5l-2.3-7.6-10.6 2.9 2.3 7.6c.6 1.8 1.2 2.3 2.9 1.8l2.3-.6 1.2 5.3-22.3 6.5-1.2-5.3 2.9-.6c1.8-.6 2.3-1.8 1.8-3.5l-5.3-20c-.6-1.8-1.2-2.3-2.9-1.8l-2.9.6-1.2-5.3 22.3-6.5 1.2 5.3-2.3.6c-1.8.6-2.3 1.2-1.8 2.9l2.3 6.5L260 328l-2.3-6.5c-.6-1.8-1.2-2.3-2.9-1.8l-2.3.6-1.2-5.3 22.3-6.5 1.2 5.3-2.9.6c-1.8.6-2.3 1.2-1.8 2.9l5.3 20c.6 1.8 1.2 2.3 2.9 1.8l2.9-.6 1.2 5.3-22.4 7.7m39.3-14.7l-3.5-4.7 2.3-1.8c1.2-.6 1.8-1.8.6-3.5l-12.9-17.6c-.6-1.2-1.8-1.2-3.5 0L280 311l-3.5-4.7 31.1-22.3 8.8 12.3-5.3 3.5-1.2-2.3c-2.9-3.5-6.5-4.1-9.4-1.8l-4.1 2.9c-1.2.6-1.8 1.8-.6 3.5l4.7 6.5 2.3-1.8c1.2-.6 1.2-2.3.6-3.5l-1.8-2.3 4.7-3.5 10.6 14.1-4.7 3.5-2.3-3.5c-.6-1.2-2.3-1.8-3.5-.6l-2.3 1.8 5.3 6.5c1.2 1.2 1.8 1.2 2.9.6l3.5-2.9c3.5-2.9 5.3-5.9 1.8-10.6l-1.2-2.3 5.3-3.5 9.4 12.3-31.8 23.9m42.8-91.5c-.6 1.2-.6 2.3.6 3.5l24.1 15.3-6.5 10-28.8 1.2 12.9 8.2c1.2.6 2.3.6 3.5-.6l1.8-2.3 4.7 2.9-10 15.3-4.7-2.9 1.8-2.3c.6-1.2.6-2.3-.6-3.5l-17-10.6c-1.2-.6-2.9-.6-3.5.6l-1.8 2.3-4.7-2.9 9.4-15.3 28.2-1.2-12.3-7.6c-1.2-.6-2.3-.6-3.5.6l-1.8 2.3-4.7-2.9 10-15.3 4.7 2.9-1.8 2.3" fill="#FFF"/><path d="M230.6 217.7l3.5 10.6c16.4-7 48.1-23.5 55.2-49.9-18.2 26.4-58.7 39.3-58.7 39.3m-24-67.5l3.5 10.6c8.8-1.8 21.1-1.2 25.2 11.7.6 1.2.6 2.3.6 3.5 5.3-4.1 8.2-10.6 5.9-18.2-7.7-20.5-35.2-7.6-35.2-7.6m-46.4 15.9l-14.7 5.2-12.9-35.7-6.4 1.7-4.1 1.8 17 46.9 14.6-5.9 40.5 112.7 45.2-16.4-3.5-10.6-34.6 12.3-41.1-112" fill="#AC162C"/><path d="M234.1 210.7l15.8 44-45.2 16.4-41-112.1-14.7 5.3-17-46.9 4.1-1.8 13.5-5.3C191.9 95.1 274 68.7 296.9 132c18.8 51.1-62.8 78.1-62.8 78.7m-11.7-33.5s29.3-8.8 22.9-27c-7.6-21.1-35.8-8.2-35.8-8.2h-.6zM62.8 226.5s0-.6 0 0c-.6-.6-.6-1.8-1.2-2.3-.6-.6-.6-.6-.6-1.2-1.8-1.8-2.3-4.1-1.2-6.5 0-.6.6-1.2.6-2.3.6-.6.6-1.8.6-2.9v-1.2c0-.6-.6 0-.6 0 0 .6 0 .6-.6 1.2s-.6 2.3-1.2 2.9c-.6.6-.6 1.2-1.8 2.3-1.2 1.2-2.9 1.8-4.7.6-2.3-1.2-2.3-4.7-.6-5.3h.6c0 .6 0 1.2.6 1.8.6.6 1.8.6 2.3-.6.6-.6.6-.6.6-1.8.6-.6.6-1.2.6-1.2 0-.6-1.2 0-1.8-.6-.6-.6-.6-.6-.6-1.2v-.6c.6-.6 1.8-.6 2.3-.6 0 0 0-.6-.6-1.8-.6-1.2-1.2-2.3-2.9-2.3-.6 0-1.8 0-2.3.6-.6.6-.6 1.2-.6 1.8v.6c-.6.6-2.3 0-3.5-.6-.6-.6-1.8-1.8-2.3-2.9v-.6c-.6-2.3.6-5.3 3.5-5.9 1.2-.6 2.3-.6 3.5-.6 1.2.6 2.3.6 3.5 2.3 1.8 1.2 2.3 3.5 2.9 5.3v.6c.6.6.6 1.8.6 2.9v1.8h.6v-1.8c0-1.2-.6-1.8-.6-2.9-.6-2.3-1.8-4.1-2.3-6.5-.6-1.2-.6-2.9-.6-4.1 0-1.2.6-2.3 1.2-3.5.6-1.8 2.3-2.3 3.5-3.5.6-1.2 1.2-2.3 1.8-4.1.6 1.8.6 2.9 1.8 4.1l3.5 3.5c.6 1.2 1.2 2.3 1.2 3.5 0 1.8-.6 2.9-.6 4.1-.6 2.3-1.8 4.1-2.3 6.5-.6.6-.6 1.8-.6 2.9v1.8s.6.6.6 0v-1.8c0-1.2.6-2.3.6-2.9v-.6c.6-2.3 1.8-3.5 2.9-5.3.6-.6 2.3-1.8 3.5-2.3 1.2-.6 2.3 0 3.5.6 2.3.6 3.5 3.5 3.5 5.9v.6c-.6 1.2-1.2 2.3-2.3 2.9-1.2.6-2.9 1.2-3.5.6v-.6c0-.6-.6-1.2-.6-1.8-.6-.6-1.2-.6-2.3-.6-1.8 0-2.3 1.2-2.9 2.3-.6.6-.6 1.2-.6 1.8 0 .6 1.2 0 2.3.6v.6c0 .6 0 .6-.6 1.2s-1.8 0-1.8.6c0 0 0 .6.6 1.2s.6 1.2.6 1.8c.6.6 1.8.6 2.3.6.5 0 .6-1.2.6-1.8h.6c1.8 1.2 2.3 4.1-.6 5.3-1.8.6-3.5.6-4.7-.6-.6-.6-1.2-1.2-1.8-2.3-.6-1.2-.6-1.8-1.2-2.9 0-.6 0-.6-.6-1.2 0-.6-.6-.6-.6 0v1.2c0 .6.6 1.8.6 2.9 0 .6.6 1.2.6 2.3.6 2.3 0 4.7-1.2 6.5-.6.6-.6.6-.6 1.2 2.6.5 2.6 1.1 1.4 2.3.6-.6.6 0 0 0m302.8 0s0-.6 0 0c-.6-.6-.6-1.8-1.2-2.3-.6-.6-.6-.6-.6-1.2-1.8-1.8-2.3-4.1-1.2-6.5 0-.6.6-1.2.6-2.3.6-.6.6-1.8.6-2.9v-1.2c0-.6-.6 0-.6 0 0 .6 0 .6-.6 1.2s-.6 2.3-1.2 2.9c-.6.6-.6 1.2-1.8 2.3-1.2 1.2-2.9 1.8-4.7.6-2.3-1.2-2.3-4.7-.6-5.3h.6c0 .6 0 1.2.6 1.8.6.6 1.8.6 2.3-.6.6-.6.6-.6.6-1.8.6-.6.6-1.2.6-1.2 0-.6-1.2 0-1.8-.6-.6-.6-.6-.6-.6-1.2v-.6c.6-.6 1.8-.6 2.3-.6 0 0 0-.6-.6-1.8-.6-1.2-1.2-2.3-2.9-2.3-.6 0-1.8 0-2.3.6-.6.6-.6 1.2-.6 1.8v.6c-.6.6-2.3 0-3.5-.6-.6-.6-1.8-1.8-2.3-2.9v-.6c-.6-2.3.6-5.3 3.5-5.9 1.2-.6 2.3-.6 3.5-.6 1.2.6 2.3.6 3.5 2.3 1.8 1.2 2.3 3.5 2.9 5.3v.6c.6.6.6 1.8.6 2.9v1.8h.6v-1.8c0-1.2-.6-1.8-.6-2.9-.6-2.3-1.8-4.1-2.3-6.5-.6-1.2-.6-2.9-.6-4.1 0-1.2.6-2.3 1.2-3.5.6-1.8 2.3-2.3 3.5-3.5.6-1.2 1.2-2.3 1.8-4.1h.6c.6 1.8.6 2.9 1.8 4.1l3.5 3.5c.6 1.2 1.2 2.3 1.2 3.5 0 1.8-.6 2.9-.6 4.1-.6 2.3-1.8 4.1-2.3 6.5-.6.6-.6 1.8-.6 2.9v1.8s.6.6.6 0v-1.8c0-1.2.6-2.3.6-2.9v-.6c.6-2.3 1.8-3.5 2.9-5.3.6-.6 2.3-1.8 3.5-2.3 1.2-.6 2.3 0 3.5.6 2.3.6 3.5 3.5 3.5 5.9v.6c-.6 1.2-1.2 2.3-2.3 2.9-1.2.6-2.9 1.2-3.5.6v-.6c0-.6-.6-1.2-.6-1.8 0-.6-1.2-.6-2.3-.6-1.8 0-2.3 1.2-2.9 2.3-.6.6-.6 1.2-.6 1.8 0 .6 1.2 0 2.3.6v.6c0 .6 0 .6-.6 1.2s-1.8 0-1.8.6c0 0 0 .6.6 1.2s.6 1.2.6 1.8c.6.6 1.8.6 2.3.6.5 0 .6-1.2.6-1.8h.6c1.8 1.2 2.3 4.1-.6 5.3-1.8.6-3.5.6-4.7-.6-.6-.6-1.2-1.2-1.8-2.3-.6-1.2-.6-1.8-1.2-2.9 0-.6-.6-.6-.6-1.2s-.6-.6-.6 0v1.2c0 .6.6 1.8.6 2.9 0 .6.6 1.2.6 2.3.6 2.3 0 4.7-1.2 6.5-.6.6-.6.6-.6 1.2.2.5 1.4 1.1.8 2.3.6-.6 0 0 0 0m-46.4 177.2c0 17.6-9.4 32.3-22.3 38.1V470h-21.1v-28.2c-12.9-5.3-22.3-20.5-22.3-38.1v-8.8h22.3v15.8c0 7 5.3 13.5 10.6 13.5s10.6-5.9 10.6-13.5v-16.4h22.3v9.4M68.7 427.8c0-20.5 13.5-37 29.9-37s29.9 16.4 29.9 37-13.5 37-29.9 37c-16.4-.6-29.9-16.5-29.9-37m25.8 19.3c7 0 12.3-6.5 12.3-14.7 0-7.6-5.9-14.7-12.3-14.7-7 0-12.3 6.5-12.3 14.7s5.2 14.7 12.3 14.7m281.6 7.1c3.5 3.5 12.3 9.4 21.1 10.6 11.7 2.3 27.6-4.1 29.3-15.3 4.1-25.8-27-24.1-24.6-38.1 0 0 .6-7.6 9.4-5.9 6.5 1.2 15.3 8.2 15.3 8.2v-18.2c-2.3-1.2-6.5-3.5-14.1-4.7-13.5-2.3-32.3 1.2-34 15.3-3.5 19.4 23.5 20 21.7 31.7 0 0-1.2 7-10 5.9-6.5-.6-13.5-6.5-13.5-6.5l-.6 17m-348.5-4.7V470H6.5v-52.8H0v-22.3h8.8c19.4 0 58.1 1.8 57.5 31.1-.6 24.7-38.7 23.5-38.7 23.5m.6-15.3s13.5.6 13.5-7.6c0-10-13.5-8.8-13.5-8.8zm129.6 15.3V470h-21.1v-52.8h-6.5v-22.3h8.8c19.4 0 58.1 1.8 57.5 31.1.1 24.7-38.1 23.5-38.7 23.5m.6-15.3s13.5.6 13.5-7.6c0-10-13.5-8.8-13.5-8.8zm84.5-.6s-1.8-12.3-13.5-12.3c-10 0-11.1 12.3-11.1 12.3h24.6m10 31.1c-5.3 8.2-15.3 15.3-25.2 15.3-16.4 0-30.5-16.4-30.5-37.6 0-21.2 13.5-38.1 30.5-37.6 22.3.6 29.3 16.4 28.2 42.8h-39.3s1.2 25.2 30.5 8.8zm106.8-31.1s-1.8-12.3-13.5-12.3c-10 0-11.1 12.3-11.1 12.3h24.6m10 31.1c-5.3 8.2-15.3 15.3-25.2 15.3-16.4 0-30.5-16.4-30.5-37.6 0-21.2 13.5-38.1 30.5-37.6 22.3.6 29.3 16.4 28.2 42.8h-39.3s1.2 25.2 30.5 8.8z" fill="#FF671B"/><path d="M417.2 453.6h-.6v1.2h.6c.6 0 .6 0 .6-.6.6-.6.6-.6-.6-.6m1.2 3.5l-1.2-1.8h-.6v1.8h-.6v-4.7h1.8c1.2 0 1.8.6 1.8 1.2s-.6 1.2-1.2 1.2zm-1.2-5.9c-2.3 0-3.5 1.8-3.5 3.5 0 2.3 1.8 3.5 3.5 3.5 2.3 0 3.5-1.8 3.5-3.5s-1.7-3.5-3.5-3.5m0 7.7c-2.3 0-3.5-1.8-3.5-4.1s1.8-3.5 3.5-3.5c1.8 0 4.1 1.8 4.1 3.5 0 2.3-1.7 4.1-4.1 4.1" fill="#FF671B"/><path d="M303.4 360.3h-.6v1.2h.6c.6 0 1.2 0 1.2-.6-.1-.6-.1-.6-1.2-.6m1.1 4.1l-1.2-2.3h-.6v2.3h-.6v-4.7h1.8c1.2 0 1.8.6 1.8 1.2s-.6 1.2-1.2 1.2l1.2 2.3h-1.2zm-1.1-5.9c-2.3 0-3.5 1.8-3.5 3.5s1.8 3.5 3.5 3.5 3.5-1.8 3.5-3.5-1.2-3.5-3.5-3.5m0 7.7c-2.3 0-4.1-1.8-4.1-4.1s1.8-4.1 4.1-4.1 4.1 1.8 4.1 4.1-1.8 4.1-4.1 4.1" fill="#AC162C"/></svg>