<?xml version="1.0" encoding="UTF-8"?>
<svg id="Layer_1" data-name="Layer 1" xmlns="http://www.w3.org/2000/svg" width="612" height="255.83" xmlns:xlink="http://www.w3.org/1999/xlink" viewBox="0 0 612 255.83">
  <defs>
    <style>
      .cls-1 {
        fill: #fff;
      }

      .cls-2 {
        clip-path: url(#clippath-2);
      }

      .cls-3 {
        clip-path: url(#clippath-1);
      }

      .cls-4 {
        clip-path: url(#clippath-4);
      }

      .cls-5 {
        clip-path: url(#clippath);
      }

      .cls-6 {
        fill: none;
      }

      .cls-7 {
        clip-path: url(#clippath-3);
      }
    </style>
    <clipPath id="clippath">
      <path class="cls-1" d="m277.93,129.04c-1.48-7.23-4.83-10.12-10.03-8.68-5.21,1.45-6.5,5.86-3.87,13.23,1.86,5.49,2.48,11.36,1.86,17.6-.62,6.24-2.1,11.07-4.44,14.5-3.44,5.06-7.89,7.16-13.36,6.29-5.47-.87-9.35-2.79-11.64-5.78-1.24-1.54-1.83-3.96-1.76-7.27.07-3.3.44-6.74,1.11-10.3.67-3.57,1.42-6.89,2.26-9.98.84-3.08,1.4-5.18,1.68-6.29,1.81-6.84,1.86-12.07.14-15.69-1.72-3.61-4.22-5.84-7.49-6.69-3.27-.84-6.78-.42-10.53,1.27-3.75,1.69-6.75,4.41-8.99,8.17-2.1,3.47-3.54,8.19-4.3,14.17-.76,5.98-.66,12.15.32,18.51.98,6.36,2.94,12.36,5.87,18,2.94,5.64,7.08,9.83,12.43,12.58,7.88,4.1,15.57,6,23.07,5.71,7.5-.29,15.19-4.63,23.07-13.01,5.3-5.64,7.82-12.68,7.56-21.11-.26-8.43-1.25-16.85-2.97-25.23Z"/>
    </clipPath>
    <clipPath id="clippath-1">
      <path class="cls-1" d="m338.29,115.52c.57-6.65-.73-11.65-3.9-15-3.18-3.35-6.17-5.17-8.99-5.46-9.12-1.01-16.48,1.47-22.07,7.45-5.59,5.98-10.05,11.79-13.4,17.42-3.49,5.98-3.8,11.03-.93,15.15,2.87,4.12,5.3,6.45,7.31,6.98,5.16,1.45,9.77.34,13.83-3.33,4.06-3.66,6.54-8.05,7.45-13.16.67-3.76,2.16-5.75,4.48-5.96,2.32-.22,2.97,2.57,1.97,8.35-.81,4.44-2.91,7.99-6.3,10.66-3.39,2.68-7.12,5.13-11.18,7.37-4.06,2.24-7.98,4.63-11.75,7.16-3.77,2.53-6.43,5.89-7.95,10.08-1.48,3.91-1.75,8.36-.82,13.38.93,5.01,3.64,8.39,8.13,10.12,4.63,1.83,8.66,2.29,12.07,1.37,3.41-.91,6.44-2.28,9.06-4.08,2.63-1.81,5.02-3.58,7.16-5.31,2.15-1.74,4.3-2.48,6.45-2.24,5.3.72,9.01-.57,11.14-3.87,2.13-3.3,2.54-7.41,1.25-12.33-3.54-12.87-4.54-27.79-3.01-44.75Zm-14.11,40.89c-1.34,3.11-3.06,5.96-5.16,8.57-2.43,3.09-5.83,4.81-10.17,5.17-4.35.36-6.74-1.36-7.16-5.17-.33-2.99,2.32-7.08,7.95-12.29,5.64-5.21,9.96-6.53,12.97-3.98,2.39,2.02,2.91,4.59,1.57,7.7Z"/>
    </clipPath>
    <clipPath id="clippath-2">
      <path class="cls-1" d="m405.26,150.59c-3.46-2.02-7.1-.07-10.93,5.86-2.91,4.43-7.25,4.53-13,.29-5.76-4.24-8.71-12.77-8.85-25.6,6.21-1.74,11.55-3.76,16.01-6.07,4.46-2.31,8.18-7.37,11.14-15.18,2.34-6.27,3.13-10.39,2.36-12.36-.76-1.98-2.48-2.93-5.16-2.86-2.68.07-6.01.61-9.99,1.63-3.99,1.01-7.99,1.33-12,.94-.1-2.51.29-5.42,1.15-8.75.86-3.33,1.52-6.42,1.97-9.29.45-2.87.39-5.16-.18-6.87-.57-1.71-2.32-2.25-5.23-1.63-3.73.87-6.25,3.42-7.56,7.67-1.31,4.24-3.07,10.34-5.27,18.29-9.65-.87-14.17,1.28-13.58,6.43.6,5.16,3.79,8.63,9.56,10.41-.19,2.46-.55,6.38-1.08,11.75-.52,5.37-.64,11.18-.36,17.42.29,6.24,1.23,12.42,2.83,18.54,1.6,6.12,4.43,11.16,8.49,15.11,7.35,7.23,14.32,11.15,20.88,11.75,6.57.6,12.1-.64,16.58-3.72,4.49-3.08,7.62-7.33,9.39-12.72,1.77-5.4,1.53-10.48-.72-15.25-.86-1.83-3.02-3.76-6.48-5.78Z"/>
    </clipPath>
    <clipPath id="clippath-3">
      <path class="cls-1" d="m497.27,107.72c-1.17-3.95-3.25-6.98-6.23-9.07-2.99-2.1-6.45-2.93-10.39-2.5-3.94.44-7.53,2.8-10.78,7.09-1.58,1.98-3.79,4.18-6.63,6.61-2.84,2.44-5.74,4.47-8.71,6.11-2.96,1.64-5.7,2.59-8.2,2.85-2.51.27-4.19-.81-5.05-3.22-1.67-4.48-4.05-6.3-7.13-5.46-3.08.84-5.53,3-7.34,6.47-5.64,11.23-8.15,23.5-7.56,36.8.6,13.3,3.98,23.57,10.14,30.8,2.39,2.89,5.13,4.39,8.24,4.48,3.1.1,5.87-.69,8.31-2.35,2.44-1.66,4.21-4.01,5.34-7.05,1.12-3.04.92-6.24-.61-9.62-2.15-5.16-4.57-9.7-7.27-13.63-2.7-3.93-4.05-8.64-4.05-14.13,0-3.52.99-6.08,2.97-7.7,1.98-1.61,5.81.01,11.5,4.88,3.2,2.79,9.92,2.52,20.17-.83,10.24-3.35,17.47-9.29,21.67-17.82,2.24-4.53,2.78-8.77,1.61-12.72Z"/>
    </clipPath>
    <clipPath id="clippath-4">
      <path class="cls-1" d="m561.82,152.94c-.3-6.79-1.54-13.13-3.73-19.01-2.19-5.88-4.5-10.27-6.92-13.16-7.15-8.37-14.52-13.17-22.11-14.42-7.59-1.24-15.95,4.16-25.07,16.21-6.2,8.21-8.85,17.12-7.94,26.74.91,9.62,3.83,18.13,8.77,25.53,4.94,7.4,11.12,12.78,18.54,16.14,7.42,3.36,14.51,2.86,21.27-1.51,6.79-4.34,11.43-9.81,13.91-16.42,2.48-6.61,3.58-13.31,3.28-20.1Zm-11.03-11.6c-.33,5.71-2.7,11.91-7.1,18.61-4.41,6.7-10.84,11.57-19.29,14.6-3.28,1.19-6.29.78-9.06-1.25-2.77-2.03-4.41-5.04-4.94-9.05-.53-4.01.52-8.69,3.14-14.04,2.62-5.35,7.67-10.77,15.13-16.26,7.7-5.6,13.39-7.19,17.08-4.78,3.69,2.41,5.37,6.46,5.04,12.17Z"/>
    </clipPath>
  </defs>
  <g>
    <path class="cls-1" d="m277.93,129.04c-1.48-7.23-4.83-10.12-10.03-8.68-5.21,1.45-6.5,5.86-3.87,13.23,1.86,5.49,2.48,11.36,1.86,17.6-.62,6.24-2.1,11.07-4.44,14.5-3.44,5.06-7.89,7.16-13.36,6.29-5.47-.87-9.35-2.79-11.64-5.78-1.24-1.54-1.83-3.96-1.76-7.27.07-3.3.44-6.74,1.11-10.3.67-3.57,1.42-6.89,2.26-9.98.84-3.08,1.4-5.18,1.68-6.29,1.81-6.84,1.86-12.07.14-15.69-1.72-3.61-4.22-5.84-7.49-6.69-3.27-.84-6.78-.42-10.53,1.27-3.75,1.69-6.75,4.41-8.99,8.17-2.1,3.47-3.54,8.19-4.3,14.17-.76,5.98-.66,12.15.32,18.51.98,6.36,2.94,12.36,5.87,18,2.94,5.64,7.08,9.83,12.43,12.58,7.88,4.1,15.57,6,23.07,5.71,7.5-.29,15.19-4.63,23.07-13.01,5.3-5.64,7.82-12.68,7.56-21.11-.26-8.43-1.25-16.85-2.97-25.23Z"/>
    <g class="cls-5">
      <path class="cls-1" d="m210,131.71s29.65,60.54,70.76,13.03c88.9-87.7,122.7,51.88,207.09-4.29,26.26-29.02,97.15,7.08,73.88,39.56-58.07,79.94-210.07,5.78-277.8,28.4-25.81,3.58-78.43-2.66-81.47-28.4-3.04-25.73.91-70.87,7.54-48.3Z"/>
    </g>
  </g>
  <g>
    <path class="cls-1" d="m338.29,115.52c.57-6.65-.73-11.65-3.9-15-3.18-3.35-6.17-5.17-8.99-5.46-9.12-1.01-16.48,1.47-22.07,7.45-5.59,5.98-10.05,11.79-13.4,17.42-3.49,5.98-3.8,11.03-.93,15.15,2.87,4.12,5.3,6.45,7.31,6.98,5.16,1.45,9.77.34,13.83-3.33,4.06-3.66,6.54-8.05,7.45-13.16.67-3.76,2.16-5.75,4.48-5.96,2.32-.22,2.97,2.57,1.97,8.35-.81,4.44-2.91,7.99-6.3,10.66-3.39,2.68-7.12,5.13-11.18,7.37-4.06,2.24-7.98,4.63-11.75,7.16-3.77,2.53-6.43,5.89-7.95,10.08-1.48,3.91-1.75,8.36-.82,13.38.93,5.01,3.64,8.39,8.13,10.12,4.63,1.83,8.66,2.29,12.07,1.37,3.41-.91,6.44-2.28,9.06-4.08,2.63-1.81,5.02-3.58,7.16-5.31,2.15-1.74,4.3-2.48,6.45-2.24,5.3.72,9.01-.57,11.14-3.87,2.13-3.3,2.54-7.41,1.25-12.33-3.54-12.87-4.54-27.79-3.01-44.75Zm-14.11,40.89c-1.34,3.11-3.06,5.96-5.16,8.57-2.43,3.09-5.83,4.81-10.17,5.17-4.35.36-6.74-1.36-7.16-5.17-.33-2.99,2.32-7.08,7.95-12.29,5.64-5.21,9.96-6.53,12.97-3.98,2.39,2.02,2.91,4.59,1.57,7.7Z"/>
    <g class="cls-3">
      <path class="cls-1" d="m210,131.71s29.65,60.54,70.76,13.03c88.9-87.7,122.7,51.88,207.09-4.29,26.26-29.02,97.15,7.08,73.88,39.56-58.07,79.94-210.07,5.78-277.8,28.4-25.81,3.58-78.43-2.66-81.47-28.4s.91-70.87,7.54-48.3Z"/>
    </g>
  </g>
  <g>
    <path class="cls-1" d="m405.26,150.59c-3.46-2.02-7.1-.07-10.93,5.86-2.91,4.43-7.25,4.53-13,.29-5.76-4.24-8.71-12.77-8.85-25.6,6.21-1.74,11.55-3.76,16.01-6.07,4.46-2.31,8.18-7.37,11.14-15.18,2.34-6.27,3.13-10.39,2.36-12.36-.76-1.98-2.48-2.93-5.16-2.86-2.68.07-6.01.61-9.99,1.63-3.99,1.01-7.99,1.33-12,.94-.1-2.51.29-5.42,1.15-8.75.86-3.33,1.52-6.42,1.97-9.29.45-2.87.39-5.16-.18-6.87-.57-1.71-2.32-2.25-5.23-1.63-3.73.87-6.25,3.42-7.56,7.67-1.31,4.24-3.07,10.34-5.27,18.29-9.65-.87-14.17,1.28-13.58,6.43.6,5.16,3.79,8.63,9.56,10.41-.19,2.46-.55,6.38-1.08,11.75-.52,5.37-.64,11.18-.36,17.42.29,6.24,1.23,12.42,2.83,18.54,1.6,6.12,4.43,11.16,8.49,15.11,7.35,7.23,14.32,11.15,20.88,11.75,6.57.6,12.1-.64,16.58-3.72,4.49-3.08,7.62-7.33,9.39-12.72,1.77-5.4,1.53-10.48-.72-15.25-.86-1.83-3.02-3.76-6.48-5.78Z"/>
    <g class="cls-2">
      <path class="cls-1" d="m210,131.71s29.65,60.54,70.76,13.03c88.9-87.7,122.7,51.88,207.09-4.29,26.26-29.02,97.15,7.08,73.88,39.56-58.07,79.94-210.07,5.78-277.8,28.4-25.81,3.58-78.43-2.66-81.47-28.4-3.04-25.73.91-70.87,7.54-48.3Z"/>
    </g>
  </g>
  <g>
    <path class="cls-1" d="m497.27,107.72c-1.17-3.95-3.25-6.98-6.23-9.07-2.99-2.1-6.45-2.93-10.39-2.5-3.94.44-7.53,2.8-10.78,7.09-1.58,1.98-3.79,4.18-6.63,6.61-2.84,2.44-5.74,4.47-8.71,6.11-2.96,1.64-5.7,2.59-8.2,2.85-2.51.27-4.19-.81-5.05-3.22-1.67-4.48-4.05-6.3-7.13-5.46-3.08.84-5.53,3-7.34,6.47-5.64,11.23-8.15,23.5-7.56,36.8.6,13.3,3.98,23.57,10.14,30.8,2.39,2.89,5.13,4.39,8.24,4.48,3.1.1,5.87-.69,8.31-2.35,2.44-1.66,4.21-4.01,5.34-7.05,1.12-3.04.92-6.24-.61-9.62-2.15-5.16-4.57-9.7-7.27-13.63-2.7-3.93-4.05-8.64-4.05-14.13,0-3.52.99-6.08,2.97-7.7,1.98-1.61,5.81.01,11.5,4.88,3.2,2.79,9.92,2.52,20.17-.83,10.24-3.35,17.47-9.29,21.67-17.82,2.24-4.53,2.78-8.77,1.61-12.72Z"/>
    <g class="cls-7">
      <path class="cls-1" d="m212,131.71s29.65,60.54,70.76,13.03c88.9-87.7,122.7,51.88,207.09-4.29,26.26-29.02,97.15,7.08,73.88,39.56-58.07,79.94-210.07,5.78-277.8,28.4-25.81,3.58-78.43-2.66-81.47-28.4-3.04-25.73.91-70.87,7.54-48.3Z"/>
    </g>
  </g>
  <g>
    <path class="cls-1" d="m561.82,152.94c-.3-6.79-1.54-13.13-3.73-19.01-2.19-5.88-4.5-10.27-6.92-13.16-7.15-8.37-14.52-13.17-22.11-14.42-7.59-1.24-15.95,4.16-25.07,16.21-6.2,8.21-8.85,17.12-7.94,26.74.91,9.62,3.83,18.13,8.77,25.53,4.94,7.4,11.12,12.78,18.54,16.14,7.42,3.36,14.51,2.86,21.27-1.51,6.79-4.34,11.43-9.81,13.91-16.42,2.48-6.61,3.58-13.31,3.28-20.1Zm-11.03-11.6c-.33,5.71-2.7,11.91-7.1,18.61-4.41,6.7-10.84,11.57-19.29,14.6-3.28,1.19-6.29.78-9.06-1.25-2.77-2.03-4.41-5.04-4.94-9.05-.53-4.01.52-8.69,3.14-14.04,2.62-5.35,7.67-10.77,15.13-16.26,7.7-5.6,13.39-7.19,17.08-4.78,3.69,2.41,5.37,6.46,5.04,12.17Z"/>
    <g class="cls-4">
      <path class="cls-1" d="m215.61,131s29.65,60.54,70.76,13.03c88.9-87.7,122.7,51.88,207.09-4.29,26.26-29.02,97.15,7.08,73.88,39.56-58.07,79.94-210.07,5.78-277.8,28.4-25.81,3.58-78.43-2.66-81.47-28.4s.91-70.87,7.54-48.3Z"/>
    </g>
  </g>
  <g>
    <g>
      <path class="cls-6" d="m136.2,69.5c-15.81,0-28.63,27.42-28.63,61.24,0,12.37,1.72,23.87,4.67,33.49,2.96-8.05,10.31-13.97,19.16-14.83-.49-.14-.97-.27-1.48-.38h5.03c-.59-.17-1.19-.33-1.81-.46h9.49s.02,0,.04,0c6.54-.59,13.59-.96,21.07-.98.71-5.35,1.11-11,1.11-16.84,0-33.82-12.82-61.24-28.63-61.24Z"/>
      <path class="cls-1" d="m196.08,152.99s-.04-.03-.05-.04c2.44-6.75,3.78-14.03,3.78-21.62,0-35.09-28.45-63.54-63.54-63.54s-63.54,28.45-63.54,63.54c0,32.9,25.01,59.96,57.05,63.21,1.25.21,2.53.33,3.83.33.38,0,.75-.02,1.13-.04.51.01,1.02.04,1.53.04,6.91,0,13.56-1.12,19.79-3.16-.87-2.57-1.73-5.4-2.55-8.53-.57-2.18-1.12-4.49-1.65-6.97,0,0-2.43-21.76-20.46-26.79-8.85.85-16.2,6.78-19.16,14.83-2.95-9.63-4.67-21.13-4.67-33.49,0-33.82,12.82-61.24,28.63-61.24s28.63,27.42,28.63,61.24c0,5.84-.39,11.49-1.11,16.84-7.48.03-14.53.39-21.07.98-.01,0-.02,0-.04,0h-9.49c.62.14,1.22.29,1.81.46.44.13.86.27,1.27.42,16.56,5.83,18.85,26.28,18.85,26.28.17.79.34,1.57.52,2.33,9.47,41.4,24.75,37.22,24.75,37.22.03,0,.06,0,.09,0,3.92.08,7.4-2.11,10.42-5.41,8.73-9.56,13.55-28.42,13.55-28.42,2.39-11.4-.68-22.45-8.33-28.47Z"/>
    </g>
    <path class="cls-1" d="m133.66,59.19c-5.33-3.85-4.57-2.94-10.13-6.85-2.82-1.98-5.29-3.82-8.89-4.17-.56-.05-1.17-.08-1.26.15-.29.79,6.34,3.25,13.6,8.49,1.99,1.44,7.08,5.1,6.58,6.03-.46.86-5.36-1.42-21.99-7.78-9.14-3.5-12.62-4.69-16.89-8.26-1.88-1.57-9.34-7.77-7.85-11.15,1.88-4.26,16.37-3.78,27.42,1.53,14.85,7.13,22.59,23.01,21.85,23.66-.11.09-.37-.15-2.44-1.64Z"/>
    <path class="cls-1" d="m140.36,63.06c.19.13,2.38-3.8,7.47-6.97,1.56-.97,3.66-2.05,3.91-1.7.6.81-10.44,7.9-9.32,10.34,1.4,3.06,20.7-3.75,26.68-7.4.3-.18.9-.54,1.59-1.12.96-.8,6.74-5.52,5.46-9.04-1.54-4.24-12.16-6.39-20.41-3.27-11.74,4.45-15.73,18.94-15.38,19.16Z"/>
  </g>
</svg>